<svg xmlns="http://www.w3.org/2000/svg" shape-rendering="geometricPrecision" text-rendering="geometricPrecision" image-rendering="optimizeQuality" fill-rule="evenodd" clip-rule="evenodd" viewBox="0 0 463 512.109"><path fill="#F8EFE0" d="M42.443 428.179V217.131c-33.105 12.731-55.816-21.784-33.402-49.656.37-.442.776-.884 1.254-1.254L220.634 2.038c2.725-2.507 6.928-2.767 9.95-.411l210.817 163.898c.334.254.631.515.921.848 9.769 10.501 12.204 22.154 9.842 31.996a29.83 29.83 0 01-6.705 12.827 29.116 29.116 0 01-11.943 8.073c-7.377 2.653-16.146 2.581-25.031-1.623v199.117c-71.508 35.024-86.213-47.023-86.394-45.357-7.322 68.407-120.159 64.458-138.389 18.89-3.313-8.273-1.248-9.842-5.978-10.229-27.696-2.271-29.282 77.461-135.281 48.112zM408.927 18.942v82.222l-63.295-41.765V18.942h63.295z"/><path fill="#D93133" d="M42.443 217.131c-8.631 3.319-16.704 3.392-23.409 1.103-5.238-1.769-9.66-4.936-12.906-9.03-3.24-4.089-5.305-9.067-5.935-14.56-.957-8.515 1.587-18.139 8.848-27.169.37-.442.776-.884 1.254-1.254L220.634 2.038c2.725-2.507 6.928-2.767 9.95-.411l210.817 163.898c.334.254.631.515.921.848 9.769 10.501 12.204 22.154 9.842 31.996a29.83 29.83 0 01-6.705 12.827 29.116 29.116 0 01-11.943 8.073c-7.377 2.653-16.146 2.581-25.031-1.623l-20.646-9.066c0-3.725-144.609-118.034-160.573-130.461C210.35 90.983 63.083 204.377 63.083 209.167l-20.64 7.964zM408.927 18.942v82.222l-63.295-41.765V18.942h63.295z"/><path fill="#313A58" d="M226.514 152.529c14.606 0 27.872 5.98 37.474 15.578 9.625 9.625 15.578 20.997 15.578 35.58v49.268H173.438v-49.268c0-14.61 5.977-25.978 15.579-35.58 9.621-9.598 22.895-15.578 37.497-15.578z"/><path fill="#ABB9BC" d="M231.133 213.066v30.699h39.224v-30.699h-39.224zm0-51.055v41.82h39.224v-.126c0-12.05-4.931-21.106-12.881-29.057-6.922-6.931-16.14-11.57-26.343-12.637zm-9.24 41.82v-41.82c-10.224 1.089-19.411 5.706-26.342 12.637-7.946 7.951-12.877 17.007-12.877 29.057v.126h39.219zm0 39.904v-30.669h-39.219v30.699h39.219v-.03z"/><path fill="#313A58" d="M408.329 216.239l-20.395-7.899v218.955h20.395V216.239zm-366.87.893l20.398-7.899v218.956H41.459V217.132z"/><path fill="#53A6DB" d="M242.974 433.179c-20.442-1.018-44.11-12.991-58.081-29.044a88.658 88.658 0 01-7.288-9.165c-12.186 16.01-33.815 31.366-57.946 40.496-25.721 9.731-54.618 12.643-78.505 2.166l6.143-14.09c18.152 7.96 40.408 6.37 61.199-.441.616-28.305 9.052-55.099 23.603-77.83 13.323-20.813 33.863-39.779 57.287-52.066 27.99-14.681 67.4-22.413 94.47-1.745 28.091 21.423 23.921 57.721-3.938 77.692-6.389 4.576-13.943 7.478-21.655 8.223-6.292.61-12.671-.218-18.609-2.75-5.973-2.552-11.436-6.764-15.827-12.894-5.101-7.123-8.748-16.868-9.989-29.627a6.715 6.715 0 016.047-7.308c3.682-.35 6.953 2.36 7.302 6.043.983 10.159 3.744 17.722 7.571 23.062 2.89 4.035 6.385 6.767 10.151 8.377 3.815 1.624 7.959 2.152 12.095 1.748 5.285-.51 10.555-2.558 15.085-5.809 20.465-14.667 24.577-40.103 3.623-56.087-80.945-44.005-118.06 81.105-40.196 114.311a74.592 74.592 0 0016.536 1.811c10.373-.039 20.702-2.304 30.135-6.943 13.53-6.651 25.297-18.299 32.856-35.433 1.711-3.89 6.257-5.655 10.146-3.944a7.675 7.675 0 014.09 4.3c3.591 7.754 7.55 14.365 11.826 19.905 10.109 13.105 22.003 20.116 34.946 22.131 13.318 2.075 28.059-.98 43.401-8.016 10.884-4.992 22.05-11.997 33.217-20.613l9.391 12.164c-12.05 9.298-24.222 16.911-36.228 22.419-18.002 8.256-35.677 11.782-52.128 9.22-16.823-2.619-32.076-11.466-44.762-27.913a106.666 106.666 0 01-6.925-10.185c-8.769 13.61-20.259 23.447-33.085 29.753-11.567 5.688-24.204 8.462-36.88 8.51a88.818 88.818 0 01-9.078-.428z"/><path fill="#96D8F8" d="M47.911 488.46c19.427 8.52 43.754 5.839 65.787-2.497 26.085-9.871 48.434-27.275 55.61-43.324 2.075-4.647 7.529-6.734 12.176-4.659a9.177 9.177 0 014.637 4.613c7.914 15.945 20.918 27.521 35.842 34.104 9.56 4.217 19.867 6.385 30.089 6.346 10.141-.038 20.239-2.253 29.46-6.787 13.217-6.498 24.721-17.898 32.122-34.674 2.055-4.667 7.509-6.786 12.176-4.731a9.203 9.203 0 014.906 5.16c3.527 7.601 7.417 14.083 11.605 19.514 9.852 12.771 21.409 19.599 33.965 21.552 13.004 2.025 27.452-.979 42.527-7.894 10.77-4.94 21.834-11.882 32.916-20.433L463 469.346c-12.14 9.365-24.412 17.041-36.529 22.599-18.271 8.379-36.238 11.952-53.002 9.341-17.21-2.679-32.801-11.711-45.744-28.491a105.174 105.174 0 01-5.754-8.27c-8.745 12.814-19.938 22.169-32.364 28.279-11.778 5.791-24.646 8.618-37.555 8.666-12.826.048-25.685-2.641-37.533-7.866-14.313-6.316-27.236-16.346-36.981-29.745-12.569 15.646-33.787 30.462-57.338 39.375-26.054 9.858-55.363 12.789-79.66 2.133l7.371-16.907z"/></svg>